<svg id="Layer_1"  data-name="Layer 1" xmlns="http://www.w3.org/2000/svg" viewBox="0 0 1080 1080"><defs><style>.cls-1{fill:#4662ad;}.cls-2{fill:#617bbd;}</style></defs><title>Denis Prawira</title><path class="cls-1" d="M792.8,540.89a269.49,269.49,0,0,1-182.6,254c-2.35.81-4.73,1.57-7.1,2.29A269.61,269.61,0,0,1,523.81,809H398.35l-1-110.15H523.81a159,159,0,0,0,40.72-5.2,152.86,152.86,0,0,0,26.63-9.73,161.58,161.58,0,0,0,45-31.6c17.3-17.29,46.33-54.81,46.51-111.77a155,155,0,0,0-1.41-21.29c-.25-1.79-.52-3.53-.83-5.27-7.16-41-29.9-69.57-44.45-84.17a170.08,170.08,0,0,0-20.72-17.66c-21.38-15.48-53.16-31-94.69-31H286.49a110,110,0,0,0-109.64,99.91c-.25,2.52-.39,5.07-.44,7.64l0,.26v.91l0,2.18V643h0v244.9a32.38,32.38,0,0,0,.32,4.55,148,148,0,0,0,109.68,133.32,2.49,2.49,0,0,1-.5,4.93H208.32a142.81,142.81,0,0,1-142.8-142.8V504.11A233,233,0,0,1,287.21,271.3c3.77-.18,7.58-.27,11.4-.27H520.55c72.65,0,141.34,28.76,193.42,81a275,275,0,0,1,45.49,60.11A261.71,261.71,0,0,1,791.5,514c.18,1.74.34,3.49.47,5.27Q792.83,530,792.8,540.89Z"/><path class="cls-2" d="M1014.47,541.59A490.13,490.13,0,0,1,870.76,887c-.52.52-1,1-1.57,1.54Q852.57,905,834.43,919.82a488.22,488.22,0,0,1-292.84,110.51H521c-129.09,0-233.75-104.65-233.75-233.75V436h-.36V381.16H397.36V698.84l1,110.15A126.76,126.76,0,0,0,523.81,919.82h.29a382.54,382.54,0,0,0,79-8.24A373.22,373.22,0,0,0,656,896.3,379.31,379.31,0,0,0,903.64,541.24q0-11-.59-22a370.85,370.85,0,0,0-22-107.1,381.26,381.26,0,0,0-88.61-138.36c-73-73.26-169.59-113.61-271.91-113.61H208.32a32.72,32.72,0,0,0-4.86.37s-.05,0-.06,0a148.5,148.5,0,0,0-133,110.15,2.48,2.48,0,0,1-4.9-.59v-78a142.81,142.81,0,0,1,142.8-142.8H520.55C791.29,49.34,1015.33,270.85,1014.47,541.59Z"/></svg>